<?xml version="1.0" encoding="utf-8"?>
<!-- Generator: Adobe Illustrator 19.0.0, SVG Export Plug-In . SVG Version: 6.00 Build 0)  -->
<svg version="1.1" id="Layer_1" xmlns="http://www.w3.org/2000/svg" xmlns:xlink="http://www.w3.org/1999/xlink" x="0px" y="0px"
	 viewBox="0 0 96 96" style="enable-background:new 0 0 96 96;" xml:space="preserve">
<style type="text/css">
	.st0{fill:#333333;}
</style>
<g id="XMLID_1_">
	<path id="XMLID_3_" class="st0" d="M50.3,28.7H21.8c-3.5,0-6.3,2.8-6.3,6.3v28.3c0,3.5,2.8,6.3,6.3,6.3h3.1v12.6l16.7-12.6h20.9
		c3.5,0,6.3-2.8,6.3-6.3V44.4C59.5,44.4,51.8,37.6,50.3,28.7z"/>
	<polygon id="XMLID_4_" class="st0" points="80.5,18.4 76.1,13.9 68.9,21.1 61.7,13.9 57.2,18.4 64.4,25.6 57.2,32.8 61.7,37.2 
		68.9,30 76.1,37.2 80.5,32.8 73.3,25.6 	"/>
</g>
</svg>
