<?xml version="1.0" encoding="utf-8"?>
<!-- Generator: Adobe Illustrator 19.0.0, SVG Export Plug-In . SVG Version: 6.00 Build 0)  -->
<svg version="1.1" id="Layer_1" xmlns="http://www.w3.org/2000/svg" xmlns:xlink="http://www.w3.org/1999/xlink" x="0px" y="0px"
	 viewBox="0 0 96 96" style="enable-background:new 0 0 96 96;" xml:space="preserve">
<style type="text/css">
	.st0{fill:#333333;}
</style>
<g id="XMLID_2_">
	<path id="XMLID_10_" class="st0" d="M37.5,48c-3.1,0.1-5.6,1.3-7.6,3.7h-3.8c-1.6,0-2.9-0.4-4-1.2c-1.1-0.8-1.6-1.9-1.6-3.4
		c0-6.7,1.2-10.1,3.6-10.1c0.1,0,0.5,0.2,1.2,0.6c0.7,0.4,1.6,0.8,2.8,1.2c1.1,0.4,2.3,0.6,3.4,0.6c1.3,0,2.5-0.2,3.8-0.7
		c-0.1,0.7-0.1,1.3-0.1,1.9C35.2,43.3,35.9,45.8,37.5,48z M68.2,66.2c0,2.3-0.7,4.1-2.1,5.4s-3.2,2-5.6,2h-25c-2.3,0-4.2-0.7-5.6-2
		s-2.1-3.1-2.1-5.4c0-1,0-2,0.1-3c0.1-1,0.2-2,0.4-3.1c0.2-1.1,0.5-2.2,0.8-3.1c0.3-1,0.7-1.9,1.2-2.8c0.5-0.9,1.1-1.7,1.8-2.3
		c0.7-0.6,1.5-1.2,2.4-1.5s2-0.6,3.2-0.6c0.2,0,0.6,0.2,1.2,0.6s1.3,0.9,2.1,1.4c0.8,0.5,1.8,1,3.1,1.4s2.6,0.6,3.9,0.6
		s2.6-0.2,3.9-0.6c1.3-0.4,2.3-0.9,3.1-1.4c0.8-0.5,1.5-1,2.1-1.4s1-0.6,1.2-0.6c1.2,0,2.2,0.2,3.2,0.6s1.8,0.9,2.4,1.5
		c0.7,0.6,1.3,1.4,1.8,2.3c0.5,0.9,0.9,1.8,1.2,2.8c0.3,1,0.6,2,0.8,3.1c0.2,1.1,0.3,2.2,0.4,3.1C68.1,64.2,68.2,65.2,68.2,66.2z
		 M38.8,29.7c0,2-0.7,3.8-2.1,5.2c-1.4,1.4-3.2,2.1-5.2,2.1s-3.8-0.7-5.2-2.1c-1.4-1.4-2.1-3.2-2.1-5.2s0.7-3.8,2.1-5.2
		c1.4-1.4,3.2-2.1,5.2-2.1s3.8,0.7,5.2,2.1C38.1,25.9,38.8,27.6,38.8,29.7z M59,40.7c0,3-1.1,5.6-3.2,7.8S51,51.7,48,51.7
		s-5.6-1.1-7.8-3.2S37,43.7,37,40.7c0-3,1.1-5.6,3.2-7.8s4.7-3.2,7.8-3.2s5.6,1.1,7.8,3.2S59,37.6,59,40.7z M75.5,47.1
		c0,1.5-0.5,2.6-1.6,3.4c-1.1,0.8-2.4,1.2-4,1.2h-3.8c-2-2.3-4.5-3.6-7.6-3.7c1.5-2.2,2.3-4.7,2.3-7.3c0-0.6,0-1.2-0.1-1.9
		c1.3,0.4,2.5,0.7,3.8,0.7c1.1,0,2.3-0.2,3.4-0.6c1.1-0.4,2.1-0.8,2.8-1.2c0.7-0.4,1.1-0.6,1.2-0.6C74.3,37,75.5,40.4,75.5,47.1z
		 M71.8,29.7c0,2-0.7,3.8-2.1,5.2c-1.4,1.4-3.2,2.1-5.2,2.1c-2,0-3.8-0.7-5.2-2.1c-1.4-1.4-2.1-3.2-2.1-5.2s0.7-3.8,2.1-5.2
		c1.4-1.4,3.2-2.1,5.2-2.1c2,0,3.8,0.7,5.2,2.1C71.1,25.9,71.8,27.6,71.8,29.7z"/>
</g>
</svg>
