<svg id="Layer_1" data-name="Layer 1" xmlns="http://www.w3.org/2000/svg" viewBox="0 0 230 80"><defs><style>.cls-1{fill:#7d7d7d;}.cls-2{fill:#bcbcbc;}.cls-3{fill:#ddd;}</style></defs><title>arrowsButton</title><path class="cls-1" d="M88.57,37.46C76.89,25.77,65.32,14,53.71,2.24,52.54,1.06,51.36,0,49.39,0,33.4,0,17.41,0,0,0,8.21,8.38,15.45,15.78,22.71,23.16c4.52,4.58,8.94,9.27,13.66,13.67,1.28,1.2,2,2.17,2,3.17s-.69,2-2,3.17c-4.72,4.4-9.14,9.09-13.66,13.67C15.45,64.22,8.21,71.62,0,80c17.41,0,33.4,0,49.39,0,2,0,3.15-1.06,4.32-2.24C65.32,66,76.89,54.23,88.57,42.54A3.87,3.87,0,0,0,90,40,3.87,3.87,0,0,0,88.57,37.46Z" transform="translate(0 0)"/><path class="cls-2" d="M158.57,37.46C146.89,25.77,135.32,14,123.71,2.24,122.54,1.06,121.36,0,119.39,0c-16,0-32,0-49.39,0,8.21,8.36,15.45,15.76,22.71,23.14,4.52,4.58,8.94,9.27,13.66,13.67,1.28,1.2,2,2.17,2,3.17s-.69,2-2,3.17c-4.72,4.4-9.14,9.09-13.66,13.67C85.45,64.22,78.21,71.62,70,80c17.41,0,33.4,0,49.39,0,2,0,3.15-1.06,4.32-2.24C135.32,66,146.89,54.23,158.57,42.54A3.87,3.87,0,0,0,160,40,3.87,3.87,0,0,0,158.57,37.46Z" transform="translate(0 0)"/><path class="cls-3" d="M228.57,37.46C216.89,25.77,205.32,14,193.71,2.24,192.54,1.06,191.36,0,189.39,0c-16,0-32,0-49.39,0,8.21,8.36,15.45,15.76,22.71,23.14,4.52,4.58,8.94,9.27,13.66,13.67,1.28,1.2,2,2.17,2,3.17s-.69,2-2,3.17c-4.72,4.4-9.14,9.09-13.66,13.67C155.45,64.22,148.21,71.62,140,80c17.41,0,33.4,0,49.39,0,2,0,3.15-1.06,4.32-2.24C205.32,66,216.89,54.23,228.57,42.54A3.87,3.87,0,0,0,230,40,3.87,3.87,0,0,0,228.57,37.46Z" transform="translate(0 0)"/></svg>